<svg xmlns="http://www.w3.org/2000/svg" xmlns:xlink="http://www.w3.org/1999/xlink" width="566" height="567" version="1.1" viewBox="0 0 566 567"><title>graphic-community</title><desc>Created with Sketch.</desc><defs><filter id="filter-1" width="200%" height="200%" x="-50%" y="-50%" filterUnits="objectBoundingBox"><feOffset dx="0" dy="2" in="SourceAlpha" result="shadowOffsetOuter1"/><feGaussianBlur in="shadowOffsetOuter1" result="shadowBlurOuter1" stdDeviation="17"/><feColorMatrix in="shadowBlurOuter1" result="shadowMatrixOuter1" type="matrix" values="0 0 0 0 0.360784314 0 0 0 0 0.4 0 0 0 0 0.439215686 0 0 0 0.3 0"/><feMerge><feMergeNode in="shadowMatrixOuter1"/><feMergeNode in="SourceGraphic"/></feMerge></filter><rect id="path-2" width="75.69" height="75.69" x="0" y="0" rx="11.2"/><rect id="path-4" width="75.69" height="75.69" x="0" y="0"/><rect id="path-6" width="75.69" height="75.69" x="0" y="0" rx="11.2"/><rect id="path-8" width="75.69" height="75.69" x="0" y="0"/><rect id="path-10" width="75.69" height="75.69" x="0" y="0" rx="11.2"/><rect id="path-12" width="75.69" height="75.69" x="0" y="0"/><rect id="path-14" width="75.69" height="75.69" x="0" y="0" rx="11.2"/><rect id="path-16" width="75.69" height="75.69" x="0" y="0"/><rect id="path-18" width="75.69" height="75.69" x="0" y="0" rx="11.2"/><rect id="path-20" width="75.69" height="75.69" x="0" y="0"/><rect id="path-22" width="75.69" height="75.69" x="0" y="0" rx="11.2"/><rect id="path-24" width="75.69" height="75.69" x="0" y="0"/><rect id="path-26" width="75.69" height="75.69" x="0" y="0" rx="11.2"/><rect id="path-28" width="75.69" height="75.69" x="0" y="0"/><rect id="path-30" width="75.69" height="75.69" x="0" y="0" rx="11.2"/><rect id="path-32" width="75.69" height="75.69" x="0" y="0"/><rect id="path-34" width="75.69" height="75.69" x="0" y="0" rx="11.2"/><rect id="path-36" width="75.69" height="75.69" x="0" y="0"/><rect id="path-38" width="75.69" height="75.69" x="0" y="0" rx="11.2"/><rect id="path-40" width="75.69" height="75.69" x="0" y="0"/><rect id="path-42" width="75.69" height="75.69" x="0" y="0" rx="11.2"/><rect id="path-44" width="75.69" height="75.69" x="0" y="0"/><rect id="path-46" width="75.69" height="75.69" x="0" y="0" rx="11.2"/><rect id="path-48" width="75.69" height="75.69" x="0" y="0"/><rect id="path-50" width="75.69" height="75.69" x="0" y="0" rx="11.2"/><rect id="path-52" width="75.69" height="75.69" x="0" y="0"/><rect id="path-54" width="75.69" height="75.69" x="0" y="0" rx="11.2"/><rect id="path-56" width="75.69" height="75.69" x="0" y="0"/><rect id="path-58" width="75.69" height="75.69" x="0" y="0" rx="11.2"/><rect id="path-60" width="75.69" height="75.69" x="0" y="0"/><rect id="path-62" width="75.69" height="75.69" x="0" y="0" rx="11.2"/><rect id="path-64" width="75.69" height="75.69" x="0" y="0"/></defs><g id="Habitat-Web-Community" fill="none" fill-rule="evenodd" stroke="none" stroke-width="1"><g id="Hero"><g transform="translate(-764.000000, -120.000000) translate(-39.000000, 120.000000)"><g id="graphic-community" filter="url(#filter-1)" transform="translate(1085.995689, 283.545942) rotate(-45.000000) translate(-1085.995689, -283.545942) translate(885.995689, 83.545942)"><g id="Group" transform="translate(32.000000, 33.000000)"><g id="Group-2-Copy" transform="translate(86.690377, 1.000000)"><mask id="mask-3" fill="#fff"><use xlink:href="#path-2"/></mask><use id="Mask" fill="#5C6670" xlink:href="#path-2"/><g id="Group-2" mask="url(#mask-3)"><g transform="translate(0.000000, -0.000000)"><mask id="mask-5" fill="#fff"><use xlink:href="#path-4"/></mask><use id="Mask" fill="#5C6670" fill-rule="evenodd" stroke="none" xlink:href="#path-4"/><polygon id="Rectangle-1-Copy-10" fill="#87B09A" fill-rule="evenodd" stroke="none" points="0 0 75.69 0 0 75.69"/></g></g></g><g id="Group-2-Copy-5" transform="translate(38.690377, 39.000000) scale(-1, 1) translate(-38.690377, -39.000000) translate(0.690377, 1.000000)"><mask id="mask-7" fill="#fff"><use xlink:href="#path-6"/></mask><use id="Mask" fill="#5C6670" xlink:href="#path-6"/><g id="Group-2" mask="url(#mask-7)"><g transform="translate(0.000000, -0.000000)"><mask id="mask-9" fill="#fff"><use xlink:href="#path-8"/></mask><use id="Mask" fill="#5C6670" fill-rule="evenodd" stroke="none" xlink:href="#path-8"/><polygon id="Rectangle-1-Copy-10" fill="#87B09A" fill-rule="evenodd" stroke="none" points="0 0 75.69 0 0 75.69"/></g></g></g><g id="Group-2-Copy-4" transform="translate(210.380753, 38.690377) scale(1, -1) translate(-210.380753, -38.690377) translate(172.380753, 0.690377)"><mask id="mask-11" fill="#fff"><use xlink:href="#path-10"/></mask><use id="Mask" fill="#5C6670" xlink:href="#path-10"/><g id="Group-2" mask="url(#mask-11)"><g transform="translate(0.000000, 0.000000)"><mask id="mask-13" fill="#fff"><use xlink:href="#path-12"/></mask><use id="Mask" fill="#5C6670" fill-rule="evenodd" stroke="none" xlink:href="#path-12"/><polygon id="Rectangle-1-Copy-10" fill="#87B09A" fill-rule="evenodd" stroke="none" points="0 0 75.69 0 0 75.69"/></g></g></g><g id="Group-2-Copy-2" transform="translate(124.690377, 124.380753) scale(1, -1) translate(-124.690377, -124.380753) translate(86.690377, 86.380753)"><mask id="mask-15" fill="#fff"><use xlink:href="#path-14"/></mask><use id="Mask" fill="#5C6670" xlink:href="#path-14"/><g id="Group-2" mask="url(#mask-15)"><g transform="translate(37.690377, 38.000000) rotate(-270.000000) translate(-37.690377, -38.000000) translate(-0.309623, 0.000000)"><mask id="mask-17" fill="#fff"><use xlink:href="#path-16"/></mask><use id="Mask" fill="#5C6670" fill-rule="evenodd" stroke="none" xlink:href="#path-16"/><polygon id="Rectangle-1-Copy-10" fill="#87B09A" fill-rule="evenodd" stroke="none" points="0 0 75.69 0 0 75.69"/></g></g></g><g id="Group-2-Copy-7" transform="translate(124.380753, 210.380753) scale(-1, -1) rotate(-90.000000) translate(-124.380753, -210.380753) translate(86.380753, 172.380753)"><mask id="mask-19" fill="#fff"><use xlink:href="#path-18"/></mask><use id="Mask" fill="#5C6670" xlink:href="#path-18"/><g id="Group-2" mask="url(#mask-19)"><g transform="translate(-0.000000, -0.000000)"><mask id="mask-21" fill="#fff"><use xlink:href="#path-20"/></mask><use id="Mask" fill="#5C6670" fill-rule="evenodd" stroke="none" xlink:href="#path-20"/><polygon id="Rectangle-1-Copy-10" fill="#87B09A" fill-rule="evenodd" stroke="none" points="0 0 75.69 0 0 75.69"/></g></g></g><g id="Group-2-Copy-6" transform="translate(1.000000, 86.690377)"><mask id="mask-23" fill="#fff"><use xlink:href="#path-22"/></mask><use id="Mask" fill="#5C6670" xlink:href="#path-22"/><g id="Group-2" mask="url(#mask-23)"><g transform="translate(0.000000, 0.000000)"><mask id="mask-25" fill="#fff"><use xlink:href="#path-24"/></mask><use id="Mask" fill="#5C6670" fill-rule="evenodd" stroke="none" xlink:href="#path-24"/><polygon id="Rectangle-1-Copy-10" fill="#87B09A" fill-rule="evenodd" stroke="none" points="0 0 75.69 0 0 75.69"/></g></g></g><g id="Group-2-Copy-8" transform="translate(1.000000, 172.380753)"><mask id="mask-27" fill="#fff"><use xlink:href="#path-26"/></mask><use id="Mask" fill="#5C6670" xlink:href="#path-26"/><g id="Group-2" mask="url(#mask-27)"><g transform="translate(0.000000, 0.000000)"><mask id="mask-29" fill="#fff"><use xlink:href="#path-28"/></mask><use id="Mask" fill="#5C6670" fill-rule="evenodd" stroke="none" xlink:href="#path-28"/><polygon id="Rectangle-1-Copy-10" fill="#87B09A" fill-rule="evenodd" stroke="none" points="0 0 75.69 0 0 75.69"/></g></g></g><g id="Group-2-Copy-3" transform="translate(210.380753, 124.380753) rotate(-90.000000) translate(-210.380753, -124.380753) translate(172.380753, 86.380753)"><mask id="mask-31" fill="#fff"><use xlink:href="#path-30"/></mask><use id="Mask" fill="#5C6670" xlink:href="#path-30"/><g id="Group-2" mask="url(#mask-31)"><g transform="translate(0.000000, 0.000000)"><mask id="mask-33" fill="#fff"><use xlink:href="#path-32"/></mask><use id="Mask" fill="#5C6670" fill-rule="evenodd" stroke="none" xlink:href="#path-32"/><polygon id="Rectangle-1-Copy-10" fill="#87B09A" fill-rule="evenodd" stroke="none" points="0 0 75.69 0 0 75.69"/></g></g></g><g id="Group-2-Copy-9" transform="translate(172.380753, 172.380753)"><mask id="mask-35" fill="#fff"><use xlink:href="#path-34"/></mask><use id="Mask" fill="#5C6670" xlink:href="#path-34"/><g id="Group-2" mask="url(#mask-35)"><g transform="translate(0.000000, -0.000000)"><mask id="mask-37" fill="#fff"><use xlink:href="#path-36"/></mask><use id="Mask" fill="#5C6670" fill-rule="evenodd" stroke="none" xlink:href="#path-36"/><polygon id="Rectangle-1-Copy-10" fill="#87B09A" fill-rule="evenodd" stroke="none" points="0 0 75.69 0 0 75.69"/></g></g></g><g id="Group-2-Copy-12" transform="translate(124.380753, 295.761506) scale(-1, -1) translate(-124.380753, -295.761506) translate(86.380753, 257.761506)"><mask id="mask-39" fill="#fff"><use xlink:href="#path-38"/></mask><use id="Mask" fill="#5C6670" xlink:href="#path-38"/><g id="Group-2" mask="url(#mask-39)"><g transform="translate(-0.000000, 0.000000)"><mask id="mask-41" fill="#fff"><use xlink:href="#path-40"/></mask><use id="Mask" fill="#5C6670" fill-rule="evenodd" stroke="none" xlink:href="#path-40"/><polygon id="Rectangle-1-Copy-10" fill="#87B09A" fill-rule="evenodd" stroke="none" points="0 0 75.69 0 0 75.69"/></g></g></g><g id="Group-2-Copy-11" transform="translate(1.000000, 258.071130)"><mask id="mask-43" fill="#fff"><use xlink:href="#path-42"/></mask><use id="Mask" fill="#5C6670" xlink:href="#path-42"/><g id="Group-2" mask="url(#mask-43)"><g transform="translate(0.000000, -0.000000)"><mask id="mask-45" fill="#fff"><use xlink:href="#path-44"/></mask><use id="Mask" fill="#5C6670" fill-rule="evenodd" stroke="none" xlink:href="#path-44"/><polygon id="Rectangle-1-Copy-10" fill="#87B09A" fill-rule="evenodd" stroke="none" points="0 0 75.69 0 0 75.69"/></g></g></g><g id="Group-2-Copy-10" transform="translate(210.071130, 295.761506) rotate(-90.000000) translate(-210.071130, -295.761506) translate(172.071130, 257.761506)"><mask id="mask-47" fill="#fff"><use xlink:href="#path-46"/></mask><use id="Mask" fill="#5C6670" xlink:href="#path-46"/><g id="Group-2" mask="url(#mask-47)"><g transform="translate(-0.000000, 0.000000)"><mask id="mask-49" fill="#fff"><use xlink:href="#path-48"/></mask><use id="Mask" fill="#5C6670" fill-rule="evenodd" stroke="none" xlink:href="#path-48"/><polygon id="Rectangle-1-Copy-10" fill="#87B09A" fill-rule="evenodd" stroke="none" points="0 0 75.69 0 0 75.69"/></g></g></g><g id="Group-2-Copy-16" transform="translate(296.071130, 38.690377) scale(1, -1) translate(-296.071130, -38.690377) translate(258.071130, 0.690377)"><mask id="mask-51" fill="#fff"><use xlink:href="#path-50"/></mask><use id="Mask" fill="#5C6670" xlink:href="#path-50"/><g id="Group-2" mask="url(#mask-51)"><g transform="translate(0.000000, 0.000000)"><mask id="mask-53" fill="#fff"><use xlink:href="#path-52"/></mask><use id="Mask" fill="#5C6670" fill-rule="evenodd" stroke="none" xlink:href="#path-52"/><polygon id="Rectangle-1-Copy-10" fill="#87B09A" fill-rule="evenodd" stroke="none" points="0 0 75.69 0 0 75.69"/></g></g></g><g id="Group-2-Copy-15" transform="translate(258.071130, 86.690377)"><mask id="mask-55" fill="#fff"><use xlink:href="#path-54"/></mask><use id="Mask" fill="#5C6670" xlink:href="#path-54"/><g id="Group-2" mask="url(#mask-55)"><g transform="translate(0.000000, -0.000000)"><mask id="mask-57" fill="#fff"><use xlink:href="#path-56"/></mask><use id="Mask" fill="#5C6670" fill-rule="evenodd" stroke="none" xlink:href="#path-56"/><polygon id="Rectangle-1-Copy-10" fill="#87B09A" fill-rule="evenodd" stroke="none" points="0 0 75.69 0 0 75.69"/></g></g></g><g id="Group-2-Copy-14" transform="translate(258.071130, 172.380753)"><mask id="mask-59" fill="#fff"><use xlink:href="#path-58"/></mask><use id="Mask" fill="#5C6670" xlink:href="#path-58"/><g id="Group-2" mask="url(#mask-59)"><mask id="mask-61" fill="#fff"><use xlink:href="#path-60"/></mask><use id="Mask" fill="#5C6670" xlink:href="#path-60"/><polygon id="Rectangle-1-Copy-10" fill="#87B09A" points="0 0 75.69 0 0 75.69"/></g></g><g id="Group-2-Copy-13" transform="translate(258.071130, 258.071130)"><mask id="mask-63" fill="#fff"><use xlink:href="#path-62"/></mask><use id="Mask" fill="#5C6670" xlink:href="#path-62"/><g id="Group-2" mask="url(#mask-63)"><g transform="translate(0.000000, 0.000000)"><mask id="mask-65" fill="#fff"><use xlink:href="#path-64"/></mask><use id="Mask" fill="#5C6670" fill-rule="evenodd" stroke="none" xlink:href="#path-64"/><polygon id="Rectangle-1-Copy-10" fill="#87B09A" fill-rule="evenodd" stroke="none" points="0 0 75.69 0 0 75.69"/></g></g></g></g></g></g></g></g></svg>