<svg xmlns="http://www.w3.org/2000/svg" xmlns:xlink="http://www.w3.org/1999/xlink" width="742" height="410" version="1.1" viewBox="0 0 742 410"><title>graphic-hero-pattern</title><desc>Created with Sketch.</desc><defs><rect id="path-1" width="316.53" height="316.436" x="153.791" y="65.819" rx="46.893"/><mask id="mask-2" width="316.53" height="316.436" x="0" y="0" fill="#fff" maskContentUnits="userSpaceOnUse" maskUnits="objectBoundingBox"><use xlink:href="#path-1"/></mask><path id="path-3" d="M72.4584312,86.1784312 L72.52,86.24 L85.9508081,72.6721428 C88.1924645,70.6248998 89.6,67.6787557 89.6,64.4042821 L89.6,11.1957179 C89.6,5.01887491 84.5875064,0 78.4042821,0 L25.1957179,0 C21.8821899,0 18.9018924,1.44245407 16.8508465,3.73429651 L4.44485337,16.2656027 C1.74560075,18.3097711 0,21.5491502 0,25.1957179 L0,78.4042821 C0,84.5811251 5.01249362,89.6 11.1957179,89.6 L64.4042821,89.6 C67.5644376,89.6 70.421497,88.2879886 72.4584312,86.1784312 Z"/><mask id="mask-4" width="89.6" height="89.6" x="0" y="0" fill="#fff" maskContentUnits="userSpaceOnUse" maskUnits="objectBoundingBox"><use xlink:href="#path-3"/></mask><linearGradient id="linearGradient-5" x1="100%" x2="5.133%" y1="50%" y2="33.962%"><stop offset="0%" stop-color="#BCD9CA" stop-opacity="0"/><stop offset="100%" stop-color="#87B09A"/></linearGradient><rect id="path-6" width="166.595" height="166.545" x="76.231" y="84.736" rx="24.681"/><mask id="mask-7" width="166.595" height="166.545" x="0" y="0" fill="#fff" maskContentUnits="userSpaceOnUse" maskUnits="objectBoundingBox"><use xlink:href="#path-6"/></mask></defs><g id="Page-1" fill="none" fill-rule="evenodd" stroke="none" stroke-width="1" opacity=".33"><g id="graphic-hero-pattern" transform="translate(0.000000, -19.000000)"><use id="Rectangle-13-Copy-7" stroke="#87B09A" stroke-width="2.345" mask="url(#mask-2)" opacity=".8" transform="translate(312.056253, 224.036764) rotate(135.000000) translate(-312.056253, -224.036764)" xlink:href="#path-1"/><rect id="Rectangle-13-Copy-5" width="166.595" height="166.545" x="228.709" y="140.714" fill="#5C6670" fill-opacity=".13" rx="24.681" transform="translate(312.006170, 223.986696) rotate(135.000000) translate(-312.006170, -223.986696)"/><g id="Group-7-Copy-11" stroke="#87B09A" stroke-opacity=".6" transform="translate(591.360000, 83.800000)"><use id="Combined-Shape" mask="url(#mask-4)" xlink:href="#path-3"/></g><path id="Combined-Shape" fill="url(#linearGradient-5)" d="M169.988132,233.312846 L741.962717,233.312846 L741.962717,237.939106 L169.988132,237.939106 L169.988132,233.312846 Z M169.988132,241.023279 L741.962717,241.023279 L741.962717,245.649539 L169.988132,245.649539 L169.988132,241.023279 Z M169.988132,248.733712 L741.962717,248.733712 L741.962717,253.359972 L169.988132,253.359972 L169.988132,248.733712 Z M169.988132,256.444145 L741.962717,256.444145 L741.962717,261.070405 L169.988132,261.070405 L169.988132,256.444145 Z M169.988132,264.154578 L741.962717,264.154578 L741.962717,268.780837 L169.988132,268.780837 L169.988132,264.154578 Z M169.988132,271.865011 L741.962717,271.865011 L741.962717,276.49127 L169.988132,276.49127 L169.988132,271.865011 Z"/><rect id="Rectangle-13-Copy-3" width="166.595" height="166.545" x="34.503" y="201.804" fill="#87B09A" rx="24.681" transform="translate(117.800128, 285.076887) rotate(135.000000) translate(-117.800128, -285.076887)"/><use id="Rectangle-13-Copy-6" stroke="#5C6670" stroke-opacity=".26" stroke-width="2" mask="url(#mask-7)" transform="translate(159.528333, 168.008953) rotate(135.000000) translate(-159.528333, -168.008953)" xlink:href="#path-6"/></g></g></svg>